<?xml version="1.0" ?><!DOCTYPE svg  PUBLIC '-//W3C//DTD SVG 1.1//EN'  'http://www.w3.org/Graphics/SVG/1.1/DTD/svg11.dtd'><svg enable-background="new 0 0 128 128" id="Слой_1" version="1.1" viewBox="0 0 128 128" xml:space="preserve" xmlns="http://www.w3.org/2000/svg" xmlns:xlink="http://www.w3.org/1999/xlink"><path d="M64,55.3h-7.5c-4.1,0-7.5-3.4-7.5-7.5v-7.5h7.5c4.1,0,7.5,3.4,7.5,7.5V55.3z" fill="#E5E6E6"/><path d="M64,55.8v14.5h-7.5c-4.1,0-7.5-3.4-7.5-7.5v-7.5h7.5" fill="#E5E6E6"/><path d="M64,85.3h-7.5c-4.1,0-7.5-3.4-7.5-7.5v-7.5h7.5c4.1,0,7.5,3.4,7.5,7.5V85.3z" fill="#E5E6E6"/><path d="M64,85.8v14.5h-7.5c-4.1,0-7.5-3.4-7.5-7.5v-7.5h7.5" fill="#E5E6E6"/><path d="M64,55.3h7.5c4.1,0,7.5-3.4,7.5-7.5v-7.5h-7.5c-4.1,0-7.5,3.4-7.5,7.5V55.3z" fill="#FFFFFF"/><path d="M64,70.3h7.5c4.1,0,7.5-3.4,7.5-7.5v-7.5h-7.5c-4.1,0-7.5,3.4-7.5,7.5V70.3z" fill="#FFFFFF"/><path d="M64,70.8v14.5h7.5c4.1,0,7.5-3.4,7.5-7.5v-7.5h-7.5" fill="#FFFFFF"/><path d="M64,100.3h7.5c4.1,0,7.5-3.4,7.5-7.5v-7.5h-7.5c-4.1,0-7.5,3.4-7.5,7.5V100.3z" fill="#FFFFFF"/><path d="M79,38.8h-7.5c-3.1,0-5.9,1.6-7.5,4c-1.6-2.4-4.4-4-7.5-4H49c-0.8,0-1.5,0.7-1.5,1.5v7.5  c0,2.3,0.9,4.4,2.3,6H49c-0.8,0-1.5,0.7-1.5,1.5v7.5c0,2.3,0.9,4.4,2.3,6H49c-0.8,0-1.5,0.7-1.5,1.5v7.5c0,2.3,0.9,4.4,2.3,6H49  c-0.8,0-1.5,0.7-1.5,1.5v7.5c0,5,4,9,9,9h6l0,22.2c0,0.8,0.7,1.5,1.5,1.5c0.8,0,1.5-0.7,1.5-1.5l0-22.2h6c5,0,9-4,9-9v-7.5  c0-0.8-0.7-1.5-1.5-1.5h-0.8c1.4-1.6,2.3-3.7,2.3-6v-7.5c0-0.8-0.7-1.5-1.5-1.5h-0.8c1.4-1.6,2.3-3.7,2.3-6v-7.5  c0-0.8-0.7-1.5-1.5-1.5h-0.8c1.4-1.6,2.3-3.7,2.3-6v-7.5C80.5,39.4,79.8,38.8,79,38.8z M65.5,47.8c0-3.3,2.7-6,6-6h6v6  c0,3.3-2.7,6-6,6h-6V47.8z M56.5,83.8c-3.3,0-6-2.7-6-6v-6h6c3.3,0,6,2.7,6,6v6H56.5z M50.5,56.8h6c0,0,0,0,0,0H64c0,0,0,0,0,0h0.8  c-1.4,1.6-2.3,3.7-2.3,6c0,0,0,0,0,0v6h-6c-3.3,0-6-2.7-6-6V56.8z M65.5,77.7c0-2.3-0.9-4.4-2.3-6H64c0,0,0,0,0,0s0,0,0,0h7.5  c0,0,0,0,0,0h6v6c0,3.3-2.7,6-6,6h-6L65.5,77.7C65.5,77.7,65.5,77.7,65.5,77.7z M65.5,68.8v-6c0-3.3,2.7-6,6-6h6v6c0,3.3-2.7,6-6,6  H65.5z M50.5,41.8h6c3.3,0,6,2.7,6,6v6h-6c-3.3,0-6-2.7-6-6V41.8z M50.5,92.8v-6h6c0,0,0,0,0,0H64c0,0,0,0,0,0h0.8  c-1.4,1.6-2.3,3.7-2.3,6c0,0,0,0,0,0v6h-6C53.2,98.8,50.5,96.1,50.5,92.8z M77.5,92.8c0,3.3-2.7,6-6,6h-6v-6c0-3.3,2.7-6,6-6h6V92.8  z" fill="#4A374F"/><path d="M58,31.5v-20c0-0.8-0.7-1.5-1.5-1.5S55,10.7,55,11.5v20c0,0.8,0.7,1.5,1.5,1.5S58,32.3,58,31.5z" fill="#4A374F"/><path d="M73,31.5v-10c0-0.8-0.7-1.5-1.5-1.5S70,20.7,70,21.5v10c0,0.8,0.7,1.5,1.5,1.5S73,32.3,73,31.5z" fill="#4A374F"/><path d="M64,33c0.8,0,1.5-0.7,1.5-1.5V4c0-0.8-0.7-1.5-1.5-1.5S62.5,3.2,62.5,4v27.5C62.5,32.3,63.2,33,64,33z" fill="#4A374F"/></svg>