<?xml version="1.0" ?><svg viewBox="0 0 64 64" xmlns="http://www.w3.org/2000/svg"><defs><style>.cls-1,.cls-3{fill:none;}.cls-1,.cls-2,.cls-3{stroke:#000;stroke-linejoin:round;stroke-width:2px;}.cls-1,.cls-2{stroke-linecap:round;}.cls-2{fill:#f53e28;}</style></defs><g id="fruit-basket"><path class="cls-1" d="M49.8648,26.4533a6.8526,6.8526,0,0,0-2.6437-6.1086,6.3382,6.3382,0,0,0-3.8454-1.1767,6.3386,6.3386,0,0,0-3.3788-2.1807,6.5014,6.5014,0,0,0-4.9381.819"/><path class="cls-1" d="M48.4293,15.4124s-2.865-.326-4.9582,3.5926" /><path class="cls-1" d="M17.557,20.3423a9.8946,9.8946,0,0,1,3.168-1.7106,8.9437,8.9437,0,0,1,8.1864,1.1407"/><path class="cls-1" d="M28.9444,24.4646c-3.1918,1.3234-5.0466,5.2608-4.2334,9.4082q.0958.4884.2347.9537"/><path class="cls-1" d="M42.7185,27.787a6.6878,6.6878,0,0,0-4.6354-3.6756,6.1716,6.1716,0,0,0-3.0042.17"/><path class="cls-1" d="M59.6357,34.8611c.3994-4.2412-1.9437-8.0466-5.5526-8.75A6.3391,6.3391,0,0,0,50.1,26.665a6.3391,6.3391,0,0,0-3.9831-.5536c-3.5941.7-5.9327,4.4772-5.5574,8.6973"/><path class="cls-1" d="M53.1,21.1294s-2.7355.9118-2.9822,5.3476"/><path class="cls-1" d="M24.5137,34.7907A9.4043,9.4043,0,0,0,22.88,30.9983a7.3749,7.3749,0,0,1-1.3443-3.0769l-.5232-3.07a5.8921,5.8921,0,0,0-5.8107-4.8993h0a5.8921,5.8921,0,0,0-5.8107,4.8993l-.4986,2.9264a8.023,8.023,0,0,1-1.4185,3.29,9.4038,9.4038,0,0,0-1.5817,3.7094"/><path class="cls-2" d="M18.1,14.1294s-2.7355.9118-2.9822,5.3476"/><path class="cls-1" d="M8,12h2a5,5,0,0,1,5,5v0a0,0,0,0,1,0,0H13a5,5,0,0,1-5-5v0A0,0,0,0,1,8,12Z"/><line class="cls-1" x1="49.1287" x2="51.9571" y1="4.5858" y2="7.4142"/><line class="cls-1" x1="51.9571" x2="49.1287" y1="4.5858" y2="7.4142"/><circle cx="57.0429" cy="13.5" r="1.1324"/><circle class="cls-1" cx="23.1903" cy="7.2101" r="2.0846"/><path class="cls-3" d="M4.5612,41C7.1556,52.4109,18.4539,61,32,61s24.8444-8.5891,27.4388-20"/><polyline class="cls-1" points="28.853 41 3 41 3 35 28.828 35"/><polyline class="cls-1" points="35.189 35 61 35 61 41 35.139 41"/><line class="cls-1" x1="11" x2="15" y1="46" y2="46"/><line class="cls-1" x1="18" x2="26" y1="50" y2="50"/><line class="cls-1" x1="29" x2="35" y1="50" y2="50"/><line class="cls-1" x1="48" x2="52" y1="53" y2="53"/><line class="cls-1" x1="38" x2="54" y1="45" y2="45"/><line class="cls-1" x1="14" x2="29" y1="55" y2="55"/><line class="cls-1" x1="32" x2="38" y1="55" y2="55"/><rect class="cls-1" height="33" rx="1.3164" width="6" x="29" y="12"/></g></svg>