<?xml version="1.0" encoding="UTF-8"?>
<!DOCTYPE svg PUBLIC "-//W3C//DTD SVG 1.1//EN" "http://www.w3.org/Graphics/SVG/1.1/DTD/svg11.dtd">
<!-- Creator: CorelDRAW 2021 (64 Bit) -->
<svg xmlns="http://www.w3.org/2000/svg" xml:space="preserve" width="108.373mm" height="60.96mm" version="1.1" style="shape-rendering:geometricPrecision; text-rendering:geometricPrecision; image-rendering:optimizeQuality; fill-rule:evenodd; clip-rule:evenodd"
viewBox="0 0 10837.32 6096"
 xmlns:xlink="http://www.w3.org/1999/xlink"
 xmlns:xodm="http://www.corel.com/coreldraw/odm/2003">
 <defs>
  <style type="text/css">
   <![CDATA[
    .fil1 {fill:#FEFEFE;fill-rule:nonzero}
    .fil0 {fill:#BF3B0B;fill-rule:nonzero}
    .fil3 {fill:#DAD1E9;fill-rule:nonzero}
    .fil2 {fill:#DAD1E9;fill-rule:nonzero}
   ]]>
  </style>
 </defs>
 <g id="Camada_x0020_1">
  <metadata id="CorelCorpID_0Corel-Layer"/>
  <path class="fil0" d="M7297.36 2438.12c14.6,-59.13 45.98,-107.95 94.12,-146.33 48.25,-38.24 101.81,-57.43 161.08,-57.43 59.55,0 103.92,19.19 133.28,57.43 29.33,38.38 36.75,87.2 22.15,146.33 -14.63,59.27 -46.19,108.23 -94.48,146.62 -48.31,38.52 -102.16,57.71 -161.71,57.71 -58.98,0 -103.07,-19.19 -132.36,-57.71 -29.33,-38.39 -36.71,-87.35 -22.08,-146.62z"/>
  <path class="fil1" d="M7429.37 2438.4c-7.84,31.75 -7.37,57.29 1.54,76.63 8.89,19.47 23.97,29.21 45.14,29.21 21.31,0 41.08,-9.74 59.6,-29.35 18.53,-19.62 31.57,-45.02 39.34,-76.49 7.7,-31.18 7.2,-56.58 -1.61,-76.34 -8.84,-19.61 -23.76,-29.49 -45.07,-29.49 -21.17,0 -41.06,9.74 -59.6,29.35 -18.53,19.61 -31.57,45.01 -39.34,76.48z"/>
  <path class="fil0" d="M7260.65 2071.79c-14.33,32.32 -29.87,55.88 -46.84,70.84 -16.91,14.82 -36.4,22.3 -58.41,22.3 -4.1,0 -8.54,-0.28 -13.17,-0.99 -4.76,-0.71 -9.43,-1.83 -14.33,-3.1l-32.13 -10.45c-5.19,-1.27 -9.85,-2.4 -13.78,-3.1 -3.91,-0.71 -7.93,-0.99 -11.74,-0.99 -9.03,0 -17.07,2.26 -24.01,6.92 -6.89,4.51 -13.02,11.57 -18.45,21.02l-41.35 0c13,-30.34 27.92,-53.06 44.73,-68.01 16.86,-15.1 35.78,-22.58 57.09,-22.58 5.22,0 10.58,0.56 16.23,1.69 5.65,1.13 11.51,2.54 17.37,4.52l33.55 9.87c3.32,0.85 6.67,1.56 9.95,1.98 3.42,0.42 7.06,0.56 10.87,0.56 8.75,0 17.03,-2.68 24.53,-7.9 7.53,-5.36 13.61,-12.84 18.55,-22.58l41.34 0z"/>
  <path class="fil0" d="M7268.63 2252.14l-57.49 232.83c-7.21,29.21 -12.71,53.76 -16.49,73.66 -3.75,19.76 -6.38,36.69 -7.6,50.8l-128.25 33.02 -2.82 -35.42c-19.18,12 -37.36,21.03 -54.45,26.81 -16.96,5.79 -34.02,8.61 -51.1,8.61 -48.12,0 -83.74,-19.19 -106.89,-57.43 -23.26,-38.38 -27.85,-86.08 -13.78,-143.09 14.84,-60.11 45.44,-109.78 91.78,-148.87 46.35,-39.09 97.62,-58.7 153.64,-58.7 12.84,0 25.94,1.83 39.17,5.36 13.24,3.53 27.4,9.03 42.64,16.51l111.64 -4.09z"/>
  <path class="fil1" d="M7115.75 2346.68c-6.68,-4.37 -13.22,-7.62 -19.83,-9.45 -6.56,-1.98 -13.24,-2.97 -20.15,-2.97 -24.55,0 -47.84,10.3 -69.72,30.91 -21.84,20.46 -36.72,46.42 -44.42,77.61 -7.21,29.21 -5.9,53.62 4.12,73.09 10,19.48 25.51,29.21 46.82,29.21 8.47,0 17.78,-2.25 27.93,-6.77 10.18,-4.66 21.19,-11.57 33.13,-21.03l42.12 -170.6z"/>
  <path class="fil0" d="M6432.29 2804.16l12.12 -49.1c21.09,6.06 40.29,10.58 57.37,13.4 17.05,2.97 31.79,4.38 44.21,4.38 14.68,0 26.49,-2.68 35.26,-7.91 8.9,-5.22 14.63,-12.98 17.17,-23.28 2.86,-11.57 0.3,-20.04 -7.87,-25.26 -8.02,-5.22 -22.46,-7.9 -43.2,-7.9 -1.55,0 -4.42,0.14 -8.29,0.42 -4.03,0.29 -6.88,0.43 -8.86,0.43l20.9 -84.67 37.26 0 -9.61 38.95 6.63 0c33.02,0 55.97,6.49 68.68,19.61 12.7,13.12 15.8,33.16 9.15,60.11 -6.21,25.12 -19.87,44.46 -41.17,58.14 -21.3,13.69 -48.52,20.46 -81.68,20.46 -14.81,0 -31.51,-1.55 -50.11,-4.51 -18.56,-3.11 -37.94,-7.48 -57.96,-13.27z"/>
  <path class="fil0" d="M6724.68 2603.5c-26.07,12.99 -51.01,22.58 -74.7,28.79 -23.69,6.21 -47.32,9.31 -70.74,9.31 -62.09,0 -108.43,-18.62 -139.03,-55.88 -30.77,-37.11 -39.03,-84.24 -24.92,-141.39 14.6,-59.13 48.34,-108.94 101.14,-149.01 52.79,-40.08 111.5,-60.12 176.27,-60.12 23.71,0 46.33,2.68 67.58,8.05 21.26,5.36 41.14,13.4 59.34,24.27l-43.13 115.85c-17.26,-12.42 -34.53,-21.87 -51.84,-28.36 -17.31,-6.5 -34.01,-9.74 -50.24,-9.74 -29.21,0 -55.67,8.89 -79.39,26.67 -23.72,17.78 -38.75,39.79 -45.27,66.18 -6.97,28.22 -3.65,50.8 10.05,67.88 13.71,17.07 35.19,25.54 64.4,25.54 18.2,0 38.65,-3.95 61.17,-11.72 22.69,-7.9 49.82,-20.6 81.4,-38.24l-42.09 121.92z"/>
  <polygon class="fil0" points="5753.54,2624.67 6211.93,2006.6 6220.96,2006.6 6367.38,2624.67 6217.66,2624.67 6201.23,2537.46 5957.95,2537.46 5897.61,2624.67 "/>
  <polygon class="fil1" points="6024.95,2434.17 6182.43,2434.17 6151.01,2246.49 "/>
  <path class="fil2" d="M5601.58 2564.56c4.85,-19.62 15.7,-36.13 32.62,-49.82 16.79,-13.68 34.84,-20.46 54.17,-20.46 19.9,0 35.01,6.78 45.5,20.32 10.38,13.41 13.18,30.06 8.26,49.96 -4.77,19.33 -15.75,35.84 -33.14,49.67 -17.35,13.69 -35.7,20.6 -55.32,20.6 -18.77,0 -33.26,-7.06 -43.63,-21.03 -10.21,-14.11 -13.09,-30.48 -8.46,-49.24z"/>
  <path class="fil2" d="M5144.42 2438.12c14.6,-59.13 45.98,-107.95 94.12,-146.33 48.25,-38.24 101.81,-57.43 161.08,-57.43 59.55,0 103.92,19.19 133.28,57.43 29.33,38.38 36.75,87.2 22.15,146.33 -14.63,59.27 -46.19,108.23 -94.48,146.62 -48.31,38.52 -102.16,57.71 -161.71,57.71 -58.98,0 -103.07,-19.19 -132.36,-57.71 -29.33,-38.39 -36.71,-87.35 -22.08,-146.62z"/>
  <path class="fil3" d="M5173.8 2016.76l-150.09 607.91 -117.85 17.78 2.22 -28.93c-20.65,9.88 -40.38,17.22 -59.17,21.87 -18.93,4.66 -37.45,7.06 -55.65,7.06 -52.07,0 -88.59,-17.22 -109.3,-51.65 -20.71,-34.43 -23.62,-82.12 -8.57,-143.08 15.78,-63.93 45.65,-115.15 89.49,-153.82 43.94,-38.52 94.15,-57.85 150.73,-57.85 13.27,0 25.66,1.27 37.12,3.95 11.52,2.54 22.64,6.63 33.42,12.14l53.72 -217.6 133.93 -17.78z"/>
  <path class="fil1" d="M4962.81 2346.68c-6.68,-4.37 -13.22,-7.62 -19.83,-9.45 -6.56,-1.98 -13.24,-2.97 -20.15,-2.97 -24.55,0 -47.84,10.3 -69.72,30.91 -21.84,20.46 -36.72,46.42 -44.42,77.61 -7.21,29.21 -5.9,53.62 4.12,73.09 10,19.48 25.51,29.21 46.82,29.21 8.19,0 17.35,-1.69 27.11,-5.22 9.88,-3.38 20.65,-8.75 32.31,-15.94l43.76 -177.24z"/>
  <path class="fil1" d="M5276.43 2438.4c-7.84,31.75 -7.37,57.29 1.54,76.63 8.89,19.47 23.97,29.21 45.14,29.21 21.31,0 41.08,-9.74 59.6,-29.35 18.53,-19.62 31.57,-45.02 39.34,-76.49 7.7,-31.18 7.2,-56.58 -1.61,-76.34 -8.84,-19.61 -23.76,-29.49 -45.07,-29.49 -21.17,0 -41.06,9.74 -59.6,29.35 -18.53,19.61 -31.57,45.01 -39.34,76.48z"/>
 </g>
</svg>
