<?xml version="1.0" encoding="UTF-8" standalone="no"?>
<svg
   xmlns:dc="http://purl.org/dc/elements/1.1/"
   xmlns:cc="http://creativecommons.org/ns#"
   xmlns:rdf="http://www.w3.org/1999/02/22-rdf-syntax-ns#"
   xmlns:svg="http://www.w3.org/2000/svg"
   xmlns="http://www.w3.org/2000/svg"
   xmlns:sodipodi="http://sodipodi.sourceforge.net/DTD/sodipodi-0.dtd"
   xmlns:inkscape="http://www.inkscape.org/namespaces/inkscape"
   inkscape:export-ydpi="576"
   inkscape:export-xdpi="576"
   inkscape:export-filename="D:\Project Real\November\export\line,extended\png\8 - Onigiri.png"
   width="64pt"
   height="64pt"
   viewBox="0 0 22.577778 22.577778"
   version="1.1"
   id="svg831"
   inkscape:version="1.0 (4035a4fb49, 2020-05-01)"
   sodipodi:docname="9 - Steak.svg">
  <defs
     id="defs825">
    <pattern
       id="EMFhbasepattern"
       patternUnits="userSpaceOnUse"
       width="6"
       height="6"
       x="0"
       y="0" />
    <pattern
       id="EMFhbasepattern-9"
       patternUnits="userSpaceOnUse"
       width="6"
       height="6"
       x="0"
       y="0" />
    <pattern
       id="EMFhbasepattern-0"
       patternUnits="userSpaceOnUse"
       width="6"
       height="6"
       x="0"
       y="0" />
    <pattern
       id="EMFhbasepattern-7"
       patternUnits="userSpaceOnUse"
       width="6"
       height="6"
       x="0"
       y="0" />
    <pattern
       id="EMFhbasepattern-2"
       patternUnits="userSpaceOnUse"
       width="6"
       height="6"
       x="0"
       y="0" />
    <pattern
       id="EMFhbasepattern-98"
       patternUnits="userSpaceOnUse"
       width="6"
       height="6"
       x="0"
       y="0" />
    <pattern
       id="EMFhbasepattern-6"
       patternUnits="userSpaceOnUse"
       width="6"
       height="6"
       x="0"
       y="0" />
    <pattern
       id="EMFhbasepattern-01"
       patternUnits="userSpaceOnUse"
       width="6"
       height="6"
       x="0"
       y="0" />
    <pattern
       id="EMFhbasepattern-07"
       patternUnits="userSpaceOnUse"
       width="6"
       height="6"
       x="0"
       y="0" />
    <pattern
       id="EMFhbasepattern-8"
       patternUnits="userSpaceOnUse"
       width="6"
       height="6"
       x="0"
       y="0" />
    <pattern
       id="EMFhbasepattern-4"
       patternUnits="userSpaceOnUse"
       width="6"
       height="6"
       x="0"
       y="0" />
    <pattern
       id="EMFhbasepattern-40"
       patternUnits="userSpaceOnUse"
       width="6"
       height="6"
       x="0"
       y="0" />
    <pattern
       id="EMFhbasepattern-08"
       patternUnits="userSpaceOnUse"
       width="6"
       height="6"
       x="0"
       y="0" />
    <pattern
       id="EMFhbasepattern-04"
       patternUnits="userSpaceOnUse"
       width="6"
       height="6"
       x="0"
       y="0" />
    <pattern
       id="EMFhbasepattern-014"
       patternUnits="userSpaceOnUse"
       width="6"
       height="6"
       x="0"
       y="0" />
    <pattern
       id="EMFhbasepattern-27"
       patternUnits="userSpaceOnUse"
       width="6"
       height="6"
       x="0"
       y="0" />
    <pattern
       id="EMFhbasepattern-09"
       patternUnits="userSpaceOnUse"
       width="6"
       height="6"
       x="0"
       y="0" />
    <pattern
       id="EMFhbasepattern-5"
       patternUnits="userSpaceOnUse"
       width="6"
       height="6"
       x="0"
       y="0" />
    <pattern
       id="EMFhbasepattern-018"
       patternUnits="userSpaceOnUse"
       width="6"
       height="6"
       x="0"
       y="0" />
  </defs>
  <sodipodi:namedview
     id="base"
     pagecolor="#ffffff"
     bordercolor="#666666"
     borderopacity="1.0"
     inkscape:pageopacity="0.0"
     inkscape:pageshadow="2"
     inkscape:zoom="6.2578125"
     inkscape:cx="42.666667"
     inkscape:cy="42.666667"
     inkscape:document-units="pt"
     inkscape:current-layer="layer1"
     showgrid="false"
     units="pt"
     inkscape:window-width="1366"
     inkscape:window-height="706"
     inkscape:window-x="-8"
     inkscape:window-y="-8"
     inkscape:window-maximized="1"
     inkscape:pagecheckerboard="true"
     inkscape:showpageshadow="false"
     inkscape:object-paths="true"
     inkscape:snap-intersection-paths="true"
     inkscape:snap-smooth-nodes="true"
     inkscape:snap-midpoints="true"
     showguides="true"
     inkscape:snap-bbox="true"
     inkscape:bbox-nodes="true"
     inkscape:snap-nodes="false"
     inkscape:snap-global="true"
     inkscape:document-rotation="0">
    <inkscape:grid
       type="xygrid"
       id="grid1378" />
    <sodipodi:guide
       position="0.97013831,21.607643"
       orientation="78.000048,0"
       id="guide1380"
       inkscape:locked="false" />
    <sodipodi:guide
       position="0.97013831,0.97013129"
       orientation="0,78.000005"
       id="guide1382"
       inkscape:locked="false" />
    <sodipodi:guide
       position="21.607639,0.97013129"
       orientation="-78.000048,0"
       id="guide1384"
       inkscape:locked="false" />
    <sodipodi:guide
       position="21.607639,21.607643"
       orientation="0,-78.000005"
       id="guide1386"
       inkscape:locked="false" />
  </sodipodi:namedview>
  <metadata
     id="metadata828">
    <rdf:RDF>
      <cc:Work
         rdf:about="">
        <dc:format>image/svg+xml</dc:format>
        <dc:type
           rdf:resource="http://purl.org/dc/dcmitype/StillImage" />
        <dc:title></dc:title>
      </cc:Work>
    </rdf:RDF>
  </metadata>
  <g
     inkscape:label="Icon"
     inkscape:groupmode="layer"
     id="layer1"
     transform="translate(0,-274.42223)">
    <path
       id="path947"
       style="color:#000000;font-style:normal;font-variant:normal;font-weight:normal;font-stretch:normal;font-size:medium;line-height:normal;font-family:sans-serif;font-variant-ligatures:normal;font-variant-position:normal;font-variant-caps:normal;font-variant-numeric:normal;font-variant-alternates:normal;font-variant-east-asian:normal;font-feature-settings:normal;font-variation-settings:normal;text-indent:0;text-align:start;text-decoration:none;text-decoration-line:none;text-decoration-style:solid;text-decoration-color:#000000;letter-spacing:normal;word-spacing:normal;text-transform:none;writing-mode:lr-tb;direction:ltr;text-orientation:mixed;dominant-baseline:auto;baseline-shift:baseline;text-anchor:start;white-space:normal;shape-padding:0;shape-margin:0;inline-size:0;clip-rule:nonzero;display:inline;overflow:visible;visibility:visible;opacity:1;isolation:auto;mix-blend-mode:normal;color-interpolation:sRGB;color-interpolation-filters:linearRGB;solid-color:#000000;solid-opacity:1;vector-effect:none;fill:#000000;fill-opacity:1;fill-rule:nonzero;stroke:none;stroke-width:0.529167;stroke-linecap:round;stroke-linejoin:round;stroke-miterlimit:1.5;stroke-dasharray:none;stroke-dashoffset:0;stroke-opacity:1;color-rendering:auto;image-rendering:auto;shape-rendering:auto;text-rendering:auto;enable-background:accumulate;stop-color:#000000;stop-opacity:1"
       d="m 3.4493286,279.09085 c -1.5363196,1.22563 -2.63188073,3.23863 -2.45231815,5.24137 l -0.0181891,6.7e-4 c 0.0297599,1.23064 -0.0776199,2.50537 0.0785801,3.79666 6.649e-4,0.004 0.00166,0.009 0.00266,0.0129 0.3018558,1.89891 2.0635987,3.11749 3.8232963,3.37648 1.5140175,0.3161 2.940613,-0.16235 4.1921879,0.28836 0.9475874,0.22337 1.6300624,1.02958 2.5796054,1.62492 v -6.7e-4 c 2.668397,1.57541 6.325462,0.95417 8.313579,-1.42489 1.2486,-1.38968 1.729977,-3.27052 1.624918,-5.06374 9.98e-4,-0.81062 0.0014,-1.62861 0.0014,-2.44712 0.0039,-0.2222 -0.0014,-0.44538 -0.02208,-0.66894 -0.116313,-2.35956 -1.844668,-4.27197 -3.873307,-5.20402 -2.172358,-1.00116 -4.566262,-1.46508 -6.943245,-1.49892 -0.339566,-0.005 -0.678853,-7.2e-4 -1.0232049,0.0129 -2.1383353,0.16022 -4.5027259,0.45421 -6.2837278,1.95387 z m 6.321721,-1.29013 c 0.3267484,-0.0113 0.6548564,-0.0152 0.9826154,-0.01 2.294312,0.0335 4.59605,0.48145 6.668529,1.43657 1.845807,0.84805 3.388425,2.58353 3.488183,4.63446 6.66e-4,0.005 0.0016,0.0101 0.0026,0.015 0.01436,0.14972 0.01932,0.29921 0.02079,0.44876 h -0.0039 v 0.19484 c -0.06768,2.51273 -1.897018,4.91152 -4.34221,5.56121 -0.0016,8.7e-4 -0.003,10e-4 -0.0045,0.003 -1.932424,0.55523 -4.195696,0.0752 -5.637208,-1.35606 -1.3450123,-1.08596 -3.0806426,-1.26874 -4.6623839,-1.07677 -0.8652997,0.0113 -1.7983263,-0.14696 -2.5873996,-0.51242 -0.7919963,-0.36682 -1.4331925,-0.93181 -1.7749405,-1.75285 -0.8105773,-2.04539 0.2677329,-4.44371 1.9528904,-5.78301 1.5912013,-1.34042 3.79194,-1.64481 5.8969836,-1.80191 z m 0.1915899,0.87157 c -0.1029699,-10e-4 -0.2008271,0.0447 -0.2649764,0.12529 l -1.8236508,2.27827 -1.0631441,-0.68776 c -0.06118,-0.0391 -0.1334891,-0.0572 -0.2058747,-0.0513 -0.1028179,0.008 -0.196142,0.0631 -0.2526367,0.14938 -0.1011853,0.15445 -0.057156,0.36176 0.09807,0.46176 l 1.0059942,0.65075 -0.8501301,1.06184 -1.4567082,-0.94235 c -0.061243,-0.0392 -0.1340077,-0.0572 -0.2065264,-0.0513 -0.1029536,0.008 -0.1961786,0.0635 -0.2526333,0.15002 -0.1009692,0.15442 -0.05703,0.36116 0.098066,0.46111 l 1.3995584,0.90533 -1.8119597,2.26397 c -0.1154634,0.14339 -0.092463,0.35329 0.051307,0.46826 0.1434779,0.11587 0.3538848,0.0929 0.4689026,-0.0513 l 1.8528725,-2.31722 1.5417893,0.99755 -1.2540822,1.56777 c -0.1159082,0.14347 -0.092886,0.35388 0.051305,0.4689 0.1432385,0.11398 0.3516702,0.0907 0.4663055,-0.0519 l 1.2975953,-1.62167 1.4645053,0.94755 c -0.0597,0.13789 -0.01949,0.29868 0.09807,0.39226 0.143239,0.11398 0.351667,0.0907 0.466302,-0.0519 0.418896,-0.52361 0.837655,-1.04739 1.256683,-1.57101 0.150946,0.0738 0.333178,0.0233 0.424737,-0.11751 0.07859,-0.12027 0.07098,-0.2775 -0.01881,-0.38967 0.286901,-0.35849 0.573626,-0.71699 0.860519,-1.07548 l 0.363042,0.23314 c 0.15457,0.0988 0.360115,0.0538 0.459159,-0.10067 0.09882,-0.15456 0.05376,-0.36012 -0.100666,-0.45916 l -0.303944,-0.19548 c 0.35,-0.43738 0.700261,-0.87452 1.050159,-1.31189 0.113536,-0.14375 0.08943,-0.35225 -0.0539,-0.4663 -0.05647,-0.0455 -0.12626,-0.0713 -0.198731,-0.0734 -0.103871,-0.003 -0.202862,0.0441 -0.267574,0.1253 -0.364024,0.45503 -0.72824,0.9101 -1.092369,1.36514 l -1.458012,-0.93781 1.074836,-1.34306 c 0.114139,-0.14307 0.0912,-0.35147 -0.0513,-0.4663 -0.05708,-0.0462 -0.127882,-0.0723 -0.20133,-0.074 -0.103871,-0.003 -0.202862,0.0441 -0.267572,0.1253 l -1.117049,1.39631 -1.5456863,-0.99366 0.5221543,-0.65269 c 0.114579,-0.14317 0.09163,-0.35207 -0.05131,-0.46695 -0.05717,-0.046 -0.127959,-0.0718 -0.2013251,-0.0734 z m -2.4659545,0.64165 c -0.46855,-0.0196 -0.4028712,0.75567 0.053905,0.66048 0.3955027,-0.0602 0.3465395,-0.66444 -0.053905,-0.66048 z m 8.887041,0.63775 c -0.468546,-0.0196 -0.402867,0.75568 0.0539,0.66049 0.395503,-0.0602 0.346539,-0.66445 -0.0539,-0.66049 z m -7.1082035,0.43643 1.5456865,0.99366 -0.8436328,1.0547 -1.5424411,-0.99756 z m 9.5390885,1.19758 c -0.46855,-0.0196 -0.402872,0.75568 0.0539,0.66049 0.395502,-0.0602 0.346538,-0.66445 -0.0539,-0.66049 z m -7.430983,0.15717 1.458012,0.93715 c -0.282842,0.35343 -0.565336,0.70712 -0.848178,1.06054 l -1.454763,-0.94104 z m -3.3667364,0.21887 1.5424378,0.99755 -0.850127,1.06249 -1.5417893,-0.99756 z m -4.4656033,0.14222 c -0.4685468,-0.0196 -0.402868,0.75568 0.053905,0.66049 0.3955059,-0.0602 0.3465395,-0.66445 -0.053905,-0.66049 z m 13.0149347,0.56177 c -0.127648,0.004 -0.257014,0.0226 -0.385774,0.0591 -1.305359,0.29587 -1.668984,2.13618 -0.579305,2.91147 1.031805,0.85122 2.71639,0.021 2.660786,-1.31838 0.01081,-0.93908 -0.802184,-1.67776 -1.695707,-1.65219 z m -6.445771,0.6566 1.454114,0.94105 c -0.283401,0.35414 -0.566779,0.70835 -0.850127,1.0625 l -1.4541137,-0.94106 z m 7.483586,0.9956 c -3.05e-4,0.009 -3.05e-4,0.0165 0,0.0246 0.03856,0.76317 -1.008581,1.27965 -1.604136,0.77544 -0.644003,-0.44374 -0.416907,-1.59095 0.455262,-1.77202 0.652709,-0.0313 1.161377,0.4251 1.148874,0.9719 z m 2.167208,-0.50073 c -0.468547,-0.0196 -0.402868,0.75568 0.0539,0.66049 0.395502,-0.0602 0.346539,-0.66445 -0.0539,-0.66049 z m -1.036519,2.11266 c -0.468547,-0.0195 -0.402869,0.75568 0.0539,0.66049 0.395503,-0.0602 0.346539,-0.66445 -0.0539,-0.66049 z m -8.231751,3.29237 c 1.607737,1.59934 4.09778,2.12103 6.256781,1.5025 1.84436,-0.49004 3.355122,-1.83513 4.174003,-3.51676 0.04355,1.58197 -0.406918,3.18576 -1.464507,4.36104 -1.766254,2.12294 -5.102566,2.69164 -7.471894,1.29305 -0.814787,-0.5131 -1.557614,-1.40432 -2.7393734,-1.68856 -1.5051726,-0.53273 -2.9816488,-0.0353 -4.2668712,-0.30914 -1.5340149,-0.2247 -3.0283242,-1.28715 -3.2732165,-2.82769 -0.06945,-0.58075 -0.080948,-1.17341 -0.078584,-1.77429 0.4423011,0.66684 1.0733457,1.15359 1.7768923,1.47944 0.9059531,0.41959 1.9328162,0.58825 2.9053028,0.57346 1.4982263,-0.18468 3.0494459,-0.005 4.181467,0.90695 z m 6.850378,-2.87672 c -0.162408,-0.005 -0.304094,0.10821 -0.335767,0.26756 l -0.189637,0.98328 h -6.65e-4 c -0.448293,0.14919 -0.912813,0.237 -1.372285,0.25393 0.105957,-0.13747 0.21159,-0.27502 0.31758,-0.41241 0.112442,-0.14507 0.08653,-0.35374 -0.05845,-0.46629 -0.05776,-0.0444 -0.128521,-0.0686 -0.20133,-0.0689 -0.103833,-4.1e-4 -0.201764,0.0475 -0.264972,0.12988 -0.19826,0.25698 -0.396663,0.51311 -0.594897,0.7696 -0.593018,-0.10004 -1.153909,-0.34559 -1.629465,-0.77414 -0.06823,-0.0612 -0.158707,-0.0915 -0.250036,-0.0838 -0.08467,0.006 -0.163671,0.045 -0.220811,0.10783 -0.122559,0.13622 -0.111813,0.34591 0.02404,0.4689 0.945287,0.85184 2.143196,1.09948 3.312833,0.96247 l 0.560474,0.67738 c 0.11713,0.14191 0.327317,0.16165 0.468903,0.0441 0.141912,-0.11713 0.161689,-0.32731 0.04416,-0.46889 l -0.324722,-0.39228 c 0.482828,-0.12391 0.950623,-0.30692 1.380725,-0.53579 0.16296,-0.0865 0.224452,-0.28894 0.137033,-0.45136 -0.08618,-0.16321 -0.288772,-0.225 -0.451366,-0.13769 -0.046,0.0245 -0.09354,0.0469 -0.140282,0.0701 l 0.105857,-0.54879 c 0.03532,-0.1803 -0.08268,-0.35513 -0.263025,-0.39032 -0.01782,-0.003 -0.03579,-0.005 -0.0539,-0.005 z m -7.306289,0.34096 c -0.468546,-0.0195 -0.4028672,0.75632 0.05391,0.66113 0.395503,-0.0602 0.34654,-0.66509 -0.05391,-0.66113 z m 2.710146,1.83338 c -0.468551,-0.0195 -0.402871,0.75568 0.0539,0.66049 0.395501,-0.0602 0.346538,-0.66445 -0.0539,-0.66049 z m -5.3923625,0.80142 c -0.4260078,0.003 -0.853994,0.0593 -1.2755162,0.18575 -0.1765765,0.0525 -0.276764,0.23866 -0.2234116,0.415 0.053675,0.17553 0.239429,0.27436 0.4149981,0.22081 0.9434678,-0.283 1.9800969,-0.14996 2.9530391,0.15912 0.174648,0.0552 0.3610771,-0.0412 0.4169467,-0.21562 0.05693,-0.17545 -0.039823,-0.36371 -0.2156175,-0.41955 -0.6560599,-0.20841 -1.3604311,-0.35068 -2.0704386,-0.34551 z m 3.3491995,1.00795 c -0.103396,0.005 -0.198705,0.0573 -0.25783,0.14223 -0.106286,0.15053 -0.06988,0.3588 0.08118,0.46436 0.726946,0.50687 1.504967,1.15752 2.515962,1.36708 0.179453,0.0368 0.354849,-0.0785 0.392264,-0.25783 0.03709,-0.1803 -0.07935,-0.35643 -0.259779,-0.39291 -0.80164,-0.16619 -1.511261,-0.73582 -2.268519,-1.26384 -0.05951,-0.0414 -0.130889,-0.0621 -0.203278,-0.0591 z"
       sodipodi:nodetypes="ccccccccccccccsccccccccccccccscccccccccccccccccccccccccccccccccccccccccccccccccccccccccccccccccccccccccccccccccccsccccccscccccccccccccccccccccccccccccccccccccccccccccccccccscsccccccscccccccccccc" />
  </g>
</svg>
