<?xml version="1.0" ?><!DOCTYPE svg  PUBLIC '-//W3C//DTD SVG 1.1//EN'  'http://www.w3.org/Graphics/SVG/1.1/DTD/svg11.dtd'><svg enable-background="new 0 0 128 128" id="Слой_1" version="1.1" viewBox="0 0 128 128" xml:space="preserve" xmlns="http://www.w3.org/2000/svg" xmlns:xlink="http://www.w3.org/1999/xlink"><path d="M74,62.8V14H54v48.8c-14.5,4.3-25,17.7-25,33.5c0,11.2,5.3,21.3,13.6,27.7h42.8c8.3-6.4,13.6-16.4,13.6-27.7  C99,80.5,88.4,67.1,74,62.8z" fill="#F8F7FB"/><path d="M29,94.3c0,11.2,5.3,23.3,13.6,29.7h42.8c8.3-6.4,13.6-18.4,13.6-29.7H29z" fill="#878797"/><g opacity="0.1"><path d="M39,96.3c0-14.7,4.7-25.5,16.9-30.5c1.9-0.8,3.1-2.6,3.1-4.6V14h-5v48.8c-14.5,4.3-25,17.7-25,33.5   c0,11.2,5.3,21.3,13.6,27.7h10C44.3,117.6,39,107.6,39,96.3z"/></g><line fill="#E4F3F1" x1="49" x2="79" y1="14" y2="14"/><polyline fill="#ABABAB" points="57,14 54,4 74,4 71,14 "/><g><polygon opacity="0.1" points="54,4 57,14 62,14 62,4  "/></g><line fill="#E4F3F1" x1="30" x2="78.9" y1="94" y2="94"/><path d="M76.5,61V16.5H79c1.4,0,2.5-1.1,2.5-2.5s-1.1-2.5-2.5-2.5h-4.6l2-6.8C76.6,4,76.5,3.1,76,2.5s-1.2-1-2-1H54  c-0.8,0-1.5,0.4-2,1S51.4,4,51.6,4.7l2,6.8H49c-1.4,0-2.5,1.1-2.5,2.5s1.1,2.5,2.5,2.5h2.5V61c-14.8,5.2-25,19.5-25,35.4  c0,11.7,5.3,22.5,14.5,29.6c0.4,0.3,1,0.5,1.5,0.5h42.8c0.6,0,1.1-0.2,1.5-0.5c9.3-7.2,14.6-18,14.6-29.6  C101.5,80.5,91.3,66.2,76.5,61z M70.6,6.5l-1.5,5H58.9l-1.5-5H70.6z M84.5,121.5H43.4c-7.5-6.2-11.9-15.2-11.9-25h47.4  c1.4,0,2.5-1.1,2.5-2.5s-1.1-2.5-2.5-2.5h-47c1.9-12.2,10.7-22.7,22.8-26.3c1.1-0.3,1.8-1.3,1.8-2.4V16.5H71c0,0,0,0,0,0  c0,0,0,0,0,0h0.5v46.3c0,1.1,0.7,2.1,1.8,2.4C87,69.3,96.5,82.1,96.5,96.3C96.5,106.2,92.1,115.3,84.5,121.5z" fill="#000"/></svg>