<?xml version="1.0" encoding="UTF-8" standalone="no"?>
<svg
   sodipodi:docname="2 - Salad.svg"
   inkscape:version="1.1.1 (1:1.1+202109281949+c3084ef5ed)"
   id="svg831"
   version="1.1"
   viewBox="0 0 22.577778 22.577778"
   height="64pt"
   width="64pt"
   inkscape:export-filename="/media/taufikramadhan/Data/Tr Design Studio/Project Design/TR Creative Design/Icon Design/Project Hiring/Icon Icons/010 - Food/Send/1 - Line/2 - Salad.png"
   inkscape:export-xdpi="576"
   inkscape:export-ydpi="576"
   xmlns:inkscape="http://www.inkscape.org/namespaces/inkscape"
   xmlns:sodipodi="http://sodipodi.sourceforge.net/DTD/sodipodi-0.dtd"
   xmlns="http://www.w3.org/2000/svg"
   xmlns:svg="http://www.w3.org/2000/svg"
   xmlns:rdf="http://www.w3.org/1999/02/22-rdf-syntax-ns#"
   xmlns:cc="http://creativecommons.org/ns#"
   xmlns:dc="http://purl.org/dc/elements/1.1/">
  <defs
     id="defs825">
    <pattern
       y="0"
       x="0"
       height="6"
       width="6"
       patternUnits="userSpaceOnUse"
       id="EMFhbasepattern" />
    <pattern
       y="0"
       x="0"
       height="6"
       width="6"
       patternUnits="userSpaceOnUse"
       id="EMFhbasepattern-9" />
    <pattern
       y="0"
       x="0"
       height="6"
       width="6"
       patternUnits="userSpaceOnUse"
       id="EMFhbasepattern-0" />
    <pattern
       y="0"
       x="0"
       height="6"
       width="6"
       patternUnits="userSpaceOnUse"
       id="EMFhbasepattern-7" />
    <pattern
       y="0"
       x="0"
       height="6"
       width="6"
       patternUnits="userSpaceOnUse"
       id="EMFhbasepattern-2" />
    <pattern
       y="0"
       x="0"
       height="6"
       width="6"
       patternUnits="userSpaceOnUse"
       id="EMFhbasepattern-98" />
    <pattern
       y="0"
       x="0"
       height="6"
       width="6"
       patternUnits="userSpaceOnUse"
       id="EMFhbasepattern-6" />
    <pattern
       y="0"
       x="0"
       height="6"
       width="6"
       patternUnits="userSpaceOnUse"
       id="EMFhbasepattern-01" />
    <pattern
       y="0"
       x="0"
       height="6"
       width="6"
       patternUnits="userSpaceOnUse"
       id="EMFhbasepattern-07" />
    <pattern
       y="0"
       x="0"
       height="6"
       width="6"
       patternUnits="userSpaceOnUse"
       id="EMFhbasepattern-8" />
    <pattern
       y="0"
       x="0"
       height="6"
       width="6"
       patternUnits="userSpaceOnUse"
       id="EMFhbasepattern-4" />
    <pattern
       y="0"
       x="0"
       height="6"
       width="6"
       patternUnits="userSpaceOnUse"
       id="EMFhbasepattern-40" />
    <pattern
       y="0"
       x="0"
       height="6"
       width="6"
       patternUnits="userSpaceOnUse"
       id="EMFhbasepattern-08" />
    <pattern
       y="0"
       x="0"
       height="6"
       width="6"
       patternUnits="userSpaceOnUse"
       id="EMFhbasepattern-04" />
    <pattern
       y="0"
       x="0"
       height="6"
       width="6"
       patternUnits="userSpaceOnUse"
       id="EMFhbasepattern-014" />
    <pattern
       y="0"
       x="0"
       height="6"
       width="6"
       patternUnits="userSpaceOnUse"
       id="EMFhbasepattern-27" />
    <pattern
       y="0"
       x="0"
       height="6"
       width="6"
       patternUnits="userSpaceOnUse"
       id="EMFhbasepattern-09" />
    <pattern
       y="0"
       x="0"
       height="6"
       width="6"
       patternUnits="userSpaceOnUse"
       id="EMFhbasepattern-5" />
    <pattern
       y="0"
       x="0"
       height="6"
       width="6"
       patternUnits="userSpaceOnUse"
       id="EMFhbasepattern-018" />
  </defs>
  <sodipodi:namedview
     inkscape:document-rotation="0"
     inkscape:snap-global="true"
     inkscape:snap-nodes="false"
     inkscape:bbox-nodes="true"
     inkscape:snap-bbox="true"
     showguides="true"
     inkscape:snap-midpoints="true"
     inkscape:snap-smooth-nodes="true"
     inkscape:snap-intersection-paths="true"
     inkscape:object-paths="true"
     inkscape:showpageshadow="false"
     inkscape:pagecheckerboard="true"
     inkscape:window-maximized="1"
     inkscape:window-y="31"
     inkscape:window-x="0"
     inkscape:window-height="705"
     inkscape:window-width="1366"
     units="pt"
     showgrid="false"
     inkscape:current-layer="layer1"
     inkscape:document-units="pt"
     inkscape:cy="42.525177"
     inkscape:cx="46.892628"
     inkscape:zoom="2.175182"
     inkscape:pageshadow="2"
     inkscape:pageopacity="0.0"
     borderopacity="1.0"
     bordercolor="#666666"
     pagecolor="#ffffff"
     id="base">
    <inkscape:grid
       id="grid1378"
       type="xygrid" />
    <sodipodi:guide
       inkscape:locked="false"
       id="guide1380"
       orientation="78.000048,0"
       position="0.97013831,21.607643" />
    <sodipodi:guide
       inkscape:locked="false"
       id="guide1382"
       orientation="0,78.000005"
       position="0.97013831,0.97013129" />
    <sodipodi:guide
       inkscape:locked="false"
       id="guide1384"
       orientation="-78.000048,0"
       position="21.607639,0.97013129" />
    <sodipodi:guide
       inkscape:locked="false"
       id="guide1386"
       orientation="0,-78.000005"
       position="21.607639,21.607643" />
  </sodipodi:namedview>
  <metadata
     id="metadata828">
    <rdf:RDF>
      <cc:Work
         rdf:about="">
        <dc:format>image/svg+xml</dc:format>
        <dc:type
           rdf:resource="http://purl.org/dc/dcmitype/StillImage" />
      </cc:Work>
    </rdf:RDF>
  </metadata>
  <g
     transform="translate(0,-274.42223)"
     id="layer1"
     inkscape:groupmode="layer"
     inkscape:label="Icon">
    <path
       id="rect1484"
       style="color:#000000;display:inline;fill:#000000;stroke-width:1.25286;stroke-linecap:round;stroke-linejoin:round;stroke-miterlimit:1.5;-inkscape-stroke:none"
       d="m 15.450903,275.39236 c -1.046272,-1.9e-4 -2.034939,0.56937 -2.479015,1.50333 -0.372991,-0.21149 -0.789033,-0.31918 -1.209403,-0.20652 -0.477417,0.20313 -0.810792,0.54099 -1.01905,0.92323 -1.2105133,-0.3816 -2.5126877,-0.31975 -3.5912993,0.13337 -1.1425285,0.49022 -2.0590276,1.38757 -2.574188,2.51268 l -0.7581421,-0.43766 c -0.7027974,-0.33015 -1.5314363,-0.0814 -1.7843195,0.58527 -0.3429839,0.95698 -0.5912561,2.33589 0.058269,3.76805 H 1.9008204 c -0.5750099,0 -1.0123809,0.54812 -0.8830952,1.10841 l 1.7590702,7.62998 c 0.1745003,0.75614 0.8471689,1.29666 1.6205196,1.31103 l -0.1152402,0.67334 c -0.140102,0.56039 0.2814041,1.13301 0.8688515,1.13301 H 17.427516 c 0.587452,0 1.008275,-0.57262 0.868206,-1.13301 l -0.114599,-0.67334 c 0.773026,-0.0146 1.442817,-0.5551 1.617284,-1.31103 l 1.761659,-7.62998 c 0.110402,-0.47847 -0.192662,-0.94711 -0.641601,-1.07409 -0.128395,-0.46596 -0.389995,-0.88381 -0.751022,-1.20164 0.23134,-0.79868 0.04629,-1.66969 -0.503702,-2.30745 -0.546937,-0.63417 -1.374097,-0.94353 -2.193497,-0.83712 -0.137911,-0.34408 -0.41015,-0.60218 -0.734186,-0.79245 0.725046,-1.05205 0.553381,-2.54781 -0.392992,-3.49419 -0.04134,-0.0412 -0.09249,-0.0705 -0.148916,-0.0854 -0.246631,-0.0662 -0.496607,-0.0977 -0.743248,-0.0977 z m 0.466797,0.75101 c 0.710948,0.79063 0.794184,1.98199 0.128837,2.72957 l -0.591752,0.0938 c -0.18125,0.0282 -0.305142,0.19823 -0.276452,0.3794 0.02821,0.18126 0.198225,0.30515 0.379394,0.27645 l 0.614414,-0.0984 c 0.384499,0.16846 0.639099,0.40584 0.706994,0.65908 0.05801,0.21631 -0.0026,0.485 -0.181283,0.77563 -0.165401,0.26901 -0.424973,0.54168 -0.712821,0.76072 l -0.48104,-0.0317 c -0.183199,-0.0113 -0.341109,0.12753 -0.352203,0.31077 -0.01178,0.18321 0.127522,0.34112 0.310767,0.3522 l 0.312062,0.0194 c -0.03222,0.28416 -0.211557,0.63203 -0.500465,0.95237 -0.361351,0.40065 -0.873479,0.73531 -1.25472,0.85138 h -2.340463 c 0.141759,-0.25888 0.285593,-0.51681 0.430541,-0.77433 l 1.402336,-0.37551 c 0.177388,-0.0471 0.282743,-0.22936 0.235017,-0.40658 -0.0474,-0.1768 -0.229126,-0.28173 -0.40594,-0.23437 l -0.770444,0.20588 c 0.29118,-0.50693 0.586539,-1.01263 0.881802,-1.51888 l 1.402983,-0.3755 c 0.177388,-0.0471 0.282744,-0.22937 0.235016,-0.40659 -0.04711,-0.17707 -0.228927,-0.28233 -0.405935,-0.23502 l -0.759439,0.20459 c 0.24397,-0.4199 0.487399,-0.84082 0.727711,-1.26378 0.089,-0.15885 0.03321,-0.35976 -0.124947,-0.44997 -0.159269,-0.0908 -0.362051,-0.0352 -0.452556,0.12429 -0.239717,0.42192 -0.482941,0.84283 -0.727063,1.26314 l -0.205239,-0.76591 c -0.04709,-0.17739 -0.229368,-0.28274 -0.406585,-0.23502 -0.177066,0.0471 -0.282329,0.22893 -0.235016,0.40595 l 0.377452,1.40103 c -0.293166,0.50298 -0.586155,1.00636 -0.876622,1.5124 l -0.202647,-0.75749 c -0.04709,-0.17739 -0.229364,-0.28275 -0.406585,-0.23503 -0.177066,0.0471 -0.282332,0.22894 -0.23502,0.40595 l 0.378749,1.40622 c -0.205938,0.3661 -0.409816,0.73416 -0.609879,1.10452 h -0.363858 c -0.6211201,-0.60503 -0.8358921,-1.50096 -0.863024,-2.28997 -0.026423,-0.96021 0.250407,-1.91824 0.92,-2.46542 l 0.146966,0.22143 c 0.101344,0.15254 0.307184,0.194 0.459677,0.0926 0.152765,-0.10111 0.194522,-0.30703 0.09322,-0.45969 l -0.26739,-0.4027 c 0.09058,-0.66274 0.300896,-1.25887 0.881156,-1.54282 0.252957,-0.0678 0.588193,0.0352 0.926474,0.28422 l 0.221421,0.57945 c 0.06549,0.17086 0.257037,0.25636 0.42795,0.19098 0.170875,-0.0655 0.256365,-0.25703 0.190996,-0.42795 l -0.214303,-0.56131 c 0.298413,-1.11369 1.457692,-1.38256 2.431753,-1.24955 z m -5.397633,2.03424 c -0.05561,0.18956 -0.09624,0.3845 -0.122366,0.57944 -0.146152,0.0978 -0.278772,0.2079 -0.3988197,0.3276 -1.7231905,-0.36013 -3.3764608,0.50186 -4.0017736,1.99215 l -0.8889229,-0.51276 c 0.4477763,-1.01252 1.2629736,-1.81945 2.2841389,-2.2576 1.0488079,-0.40489 2.1370023,-0.45447 3.1277403,-0.12883 z m -1.4372978,1.40104 c 0.1662466,-0.002 0.3334039,0.01 0.4985202,0.0382 -0.4095596,0.66992 -0.564111,1.49982 -0.5425446,2.28415 0.00948,0.3446 0.052914,0.68351 0.1255995,1.00416 l -2.632453,-1.51952 c 0.532159,-1.08963 1.4070964,-1.7817 2.5508779,-1.80697 z m -5.5938053,0.81511 0.6040515,0.34897 c -0.1875177,0.40903 -0.3419299,0.94889 -0.302997,1.56419 0.037311,0.58963 0.2639215,1.23988 0.7846874,1.86719 H 2.8350572 c -0.7346962,-1.33974 -0.5090644,-2.61256 -0.1754549,-3.54338 0.1191453,-0.36046 0.5064524,-0.39081 0.8293616,-0.23697 z m 15.6730131,0.73872 c 0.357625,0.41468 0.503036,0.96187 0.413061,1.48844 -0.503658,-0.23383 -1.073717,-0.29222 -1.618577,-0.16185 -0.312485,-0.28578 -0.689377,-0.5017 -1.106461,-0.62347 0.157104,-0.16384 0.297425,-0.34088 0.41306,-0.52896 0.149129,-0.24255 0.259632,-0.51088 0.291992,-0.78792 0.592618,-0.0682 1.280754,0.24793 1.606925,0.61376 z m -14.4901562,-0.0556 4.8259508,2.78525 c 0.054224,0.1095 0.1129199,0.21412 0.1767478,0.31206 H 5.4953516 c -0.7586592,-0.67255 -1.0056319,-1.32812 -1.0423637,-1.90862 -0.028507,-0.45059 0.08016,-0.86551 0.2188329,-1.18869 z m 1.3919775,1.34018 c -0.1186016,3.7e-4 -0.2279754,0.064 -0.2868139,0.16705 l -0.1812791,0.31076 c -0.092958,0.15933 -0.037961,0.3639 0.122364,0.45515 0.1589038,0.0916 0.3620111,0.0368 0.4532026,-0.12241 l 0.1786902,-0.31336 c 0.091512,-0.15825 0.037637,-0.36071 -0.120422,-0.45255 -0.050366,-0.0292 -0.1075301,-0.0446 -0.1657424,-0.0447 z m 10.3783207,0.004 h 6.63e-4 c 0.890427,0.15814 1.588011,0.86061 1.738352,1.7539 h -2.837688 c 0.150467,-0.12516 0.293124,-0.26264 0.424714,-0.40853 0.351129,-0.3893 0.635264,-0.85529 0.673975,-1.34537 z m 3.060406,0.91483 c 0.318912,0.20203 0.564403,0.49608 0.706347,0.83907 h -1.359604 c -0.05222,-0.40664 -0.191214,-0.78605 -0.39817,-1.11941 0.371385,0.002 0.782901,0.11426 1.051427,0.28034 z m -12.2176728,-0.213 c -0.1184663,2.2e-4 -0.2278095,0.0636 -0.2868105,0.16638 l -0.1812823,0.31336 c -0.091185,0.15876 -0.036401,0.36138 0.1223639,0.45256 0.1589039,0.0916 0.3620113,0.0368 0.4532026,-0.12241 l 0.1806328,-0.31336 c 0.091185,-0.15875 0.0364,-0.36137 -0.122364,-0.45254 -0.050429,-0.029 -0.1075902,-0.0441 -0.1657424,-0.044 z m -2.2154949,11.10214 h 7.6642887 c 0.182568,-3.6e-4 0.330483,-0.14826 0.330838,-0.33084 6.64e-4,-0.18332 -0.14751,-0.33242 -0.330838,-0.33277 H 4.4290481 c -0.4815314,0 -0.8978332,-0.32845 -1.0061093,-0.79764 l -1.4114125,-6.11953 h 6.3888484 c 0.1831387,-6.4e-4 0.3309112,-0.14965 0.330192,-0.33278 -6.63e-4,-0.18218 -0.148008,-0.32957 -0.330192,-0.33019 H 1.8587318 l -0.1948766,-0.84425 c -0.036848,-0.15967 0.073105,-0.29912 0.2369587,-0.29912 l 18.7761651,10e-6 c 0.163849,0 0.273806,0.13947 0.236958,0.29912 l -0.194877,0.84425 H 10.206075 c -0.183139,-7.3e-4 -0.3321473,0.14705 -0.3327812,0.33019 -6.628e-4,0.1841 0.1486872,0.33351 0.3327812,0.33278 h 10.359544 l -1.413341,6.11952 c -0.108247,0.46919 -0.521983,0.79764 -1.003516,0.79764 h -3.611371 c -0.183076,7.3e-4 -0.330908,0.1497 -0.330193,0.33277 3.32e-4,0.18233 0.147876,0.33013 0.330193,0.33084 h 2.971061 l 0.139197,0.80994 c 0.0014,0.008 0.002,0.0148 0.0045,0.0221 0.03784,0.15134 -0.07847,0.31077 -0.224659,0.31077 H 5.1509423 c -0.1461782,0 -0.2631392,-0.15944 -0.2253068,-0.31077 z m -1.7247715,-6.80088 c -0.1823167,7.2e-4 -0.3298341,0.14851 -0.3301888,0.33083 -6.629e-4,0.18308 0.147113,0.33207 0.3301888,0.33278 h 0.3625614 c 0.1830757,-7.3e-4 0.3309079,-0.1497 0.3301919,-0.33278 -3.314e-4,-0.18232 -0.1478753,-0.33013 -0.3301919,-0.33083 z m 1.8063333,0 c -0.1833276,-7.3e-4 -0.3324228,0.14751 -0.3327809,0.33083 -6.629e-4,0.18409 0.1486942,0.33351 0.3327809,0.33278 h 0.3593228 c 0.1840867,7.3e-4 0.3335002,-0.14869 0.3327809,-0.33278 -3.315e-4,-0.18332 -0.1494533,-0.33155 -0.3327809,-0.33083 z m 1.805687,0 c -0.1833276,-7.3e-4 -0.3324228,0.14751 -0.3327809,0.33083 -6.63e-4,0.18409 0.1486942,0.33351 0.3327809,0.33278 h 0.3599693 c 0.1840867,7.3e-4 0.3335002,-0.14869 0.3327808,-0.33278 -3.315e-4,-0.18332 -0.1494532,-0.33155 -0.3327808,-0.33083 z m -2.5275713,4.69387 c -0.1840867,-7.2e-4 -0.3335002,0.14869 -0.3327809,0.33279 6.63e-4,0.18306 0.1497052,0.3309 0.3327809,0.33019 h 6.1369992 c 0.183073,7.2e-4 0.332066,-0.14713 0.332778,-0.33019 6.64e-4,-0.1841 -0.148691,-0.33351 -0.332778,-0.33279 z"
       sodipodi:nodetypes="sccccccccsccccssccccccsccccsccccccsccccccscccccccccccccscccccccccccccccccccccccccccccccccccscccccsccccccccsccccccscccccccccccccssccccccscccccssccccscccccccccsccccccsccccccssccccccccccccccccccccccccsccscc" />
  </g>
</svg>
